<svg width="257" height="32" viewBox="0 0 257 32" fill="none" xmlns="http://www.w3.org/2000/svg">
  <g clip-path="url(#clip0_5_19)">
    <path d="M49.1902 26.9838C48.0061 26.6342 46.9109 26.0368 45.9781 25.2317L47.0062 23.0792C47.8395 23.7969 48.8048 24.3471 49.8487 24.6995C50.9941 25.1114 52.2029 25.3218 53.4209 25.3212C55.0317 25.3212 56.2366 25.0496 57.0356 24.5064C57.4057 24.2771 57.71 23.9568 57.9191 23.5764C58.1283 23.1961 58.2352 22.7685 58.2295 22.335C58.2409 22.0363 58.189 21.7385 58.0771 21.4611C57.9653 21.1836 57.7961 20.9325 57.5805 20.7242C57.1183 20.2982 56.5687 19.9769 55.9697 19.7822C55.338 19.5624 54.4347 19.3128 53.2598 19.0333C52.056 18.7634 50.872 18.4125 49.7161 17.983C48.8252 17.641 48.0328 17.0862 47.4089 16.3674C46.7381 15.538 46.4005 14.4908 46.4614 13.4283C46.4502 12.4372 46.7355 11.465 47.281 10.6353C47.8891 9.74315 48.745 9.04604 49.7445 8.62882C51.0566 8.09343 52.4676 7.83982 53.8852 7.88463C55.0286 7.88405 56.1673 8.03129 57.2725 8.32267C58.2862 8.58178 59.2477 9.01193 60.1151 9.59438L59.2197 11.8034C58.4093 11.2924 57.5305 10.8976 56.6093 10.6306C55.7245 10.3714 54.8075 10.2366 53.8852 10.2302C52.306 10.2302 51.1247 10.516 50.3415 11.0875C49.9754 11.3289 49.6758 11.6575 49.4698 12.0432C49.2638 12.429 49.1579 12.8597 49.1618 13.2965C49.1507 13.5976 49.2045 13.8975 49.3198 14.1762C49.435 14.4548 49.6089 14.7057 49.8298 14.912C50.3061 15.3476 50.8695 15.6782 51.4832 15.8823C52.3638 16.1715 53.2588 16.4151 54.1647 16.6123C55.3622 16.8827 56.5398 17.2336 57.6894 17.6627C58.5713 18.0071 59.3575 18.5561 59.9824 19.2641C60.6495 20.0808 60.9872 21.115 60.9299 22.1655C60.9507 23.1574 60.67 24.1324 60.1245 24.9632C59.4948 25.8584 58.6154 26.551 57.5947 26.9556C56.269 27.4771 54.8507 27.7255 53.4256 27.6856C51.9848 27.6819 50.5543 27.4449 49.1902 26.9838Z" fill="#C1272D" />
    <path d="M80.6287 9.8911C82.0752 11.0875 82.7985 12.736 82.7985 14.8366C82.8437 15.7713 82.6714 16.7038 82.2951 17.5616C81.9187 18.4193 81.3485 19.1792 80.6287 19.7822C79.1822 20.9848 77.2003 21.5846 74.6831 21.5814H69.8744V27.4407H67.0982V8.10129H74.6783C77.2019 8.10129 79.1853 8.69789 80.6287 9.8911ZM78.6437 18.063C79.1109 17.6712 79.4797 17.1763 79.7206 16.6179C79.9616 16.0594 80.0682 15.4527 80.0318 14.8461C80.0678 14.2388 79.9611 13.6315 79.7202 13.0723C79.4792 12.5132 79.1107 12.0174 78.6437 11.6244C77.6961 10.8802 76.3744 10.5081 74.612 10.5081H69.8744V19.1793H74.612C76.3602 19.1793 77.6961 18.8072 78.6437 18.063Z" fill="#C1272D" />
    <path d="M92.719 26.3762C91.177 25.5569 89.8931 24.3294 89.0095 22.8296C88.0989 21.2987 87.627 19.5494 87.645 17.771C87.6269 15.9941 88.0988 14.2462 89.0095 12.7171C89.8938 11.2166 91.1774 9.98775 92.719 9.16575C94.3545 8.32413 96.1692 7.88489 98.0108 7.88489C99.8524 7.88489 101.667 8.32413 103.303 9.16575C104.839 9.983 106.118 11.2073 106.998 12.703C107.899 14.2401 108.36 15.9923 108.334 17.771C108.36 19.5511 107.898 21.3048 106.998 22.8437C106.118 24.3381 104.839 25.5609 103.303 26.3762C101.668 27.2209 99.853 27.6619 98.0108 27.6619C96.1687 27.6619 94.3535 27.2209 92.719 26.3762ZM101.858 24.2379C102.982 23.6076 103.914 22.6864 104.553 21.572C105.217 20.4152 105.558 19.1028 105.539 17.771C105.558 16.4407 105.218 15.1297 104.553 13.9747C103.916 12.8574 102.984 11.9341 101.858 11.3041C100.686 10.6609 99.3637 10.336 98.025 10.3621C96.6729 10.3358 95.3372 10.6605 94.1497 11.3041C93.0151 11.9292 92.0758 12.8533 91.4351 13.9747C90.771 15.1297 90.4307 16.4407 90.4497 17.771C90.4308 19.1028 90.771 20.4152 91.4351 21.572C92.0812 22.6913 93.0233 23.6133 94.1592 24.2379C95.3466 24.8815 96.6823 25.2061 98.0345 25.1799C99.3699 25.2043 100.688 24.8795 101.858 24.2379Z" fill="#C1272D" />
    <path d="M127.673 27.4407L123.475 21.5013C122.961 21.539 122.553 21.5579 122.253 21.5579H117.449V27.4407H114.649V8.10129H122.229C124.756 8.10129 126.738 8.70103 128.175 9.90052C129.612 11.1 130.335 12.7485 130.345 14.8461C130.385 16.2009 129.996 17.5341 129.231 18.6565C128.45 19.7371 127.341 20.5408 126.067 20.9503L130.676 27.4407H127.673ZM126.199 18.0771C126.667 17.6824 127.036 17.185 127.277 16.6243C127.517 16.0635 127.624 15.4548 127.588 14.8461C127.625 14.2387 127.518 13.631 127.277 13.0717C127.036 12.5123 126.667 12.0167 126.199 11.6244C125.276 10.8802 123.93 10.5081 122.172 10.5081H117.435V19.2076H122.172C123.93 19.2076 125.276 18.8402 126.199 18.0771Z" fill="#C1272D" />
    <path d="M140.54 10.5081H133.87V8.10129H149.977V10.5081H143.288V27.4643H140.54V10.5081Z" fill="#C1272D" />
    <path d="M156.255 26.9838C155.064 26.6367 153.962 26.0392 153.024 25.2317L154.071 23.0792C154.903 23.7976 155.869 24.3479 156.913 24.6995C158.058 25.1114 159.267 25.3218 160.485 25.3212C162.096 25.3212 163.299 25.0496 164.095 24.5064C164.467 24.2783 164.773 23.9584 164.983 23.5779C165.193 23.1973 165.3 22.7691 165.294 22.335C165.305 22.0363 165.253 21.7385 165.141 21.461C165.03 21.1836 164.86 20.9325 164.645 20.7242C164.183 20.2982 163.633 19.9768 163.034 19.7822C162.402 19.5624 161.499 19.3128 160.324 19.0333C159.12 18.7634 157.936 18.4125 156.78 17.983C155.89 17.641 155.097 17.0862 154.473 16.3674C153.802 15.538 153.465 14.4908 153.526 13.4283C153.512 12.4368 153.798 11.464 154.345 10.6353C154.955 9.74244 155.812 9.04526 156.814 8.62882C158.126 8.09301 159.537 7.83939 160.954 7.88463C162.098 7.88404 163.236 8.03129 164.342 8.32266C165.356 8.58026 166.318 9.01052 167.184 9.59437L166.289 11.8034C165.478 11.2924 164.6 10.8975 163.678 10.6306C162.793 10.3717 161.877 10.2369 160.954 10.2302C159.375 10.2302 158.194 10.516 157.411 11.0875C157.045 11.3289 156.745 11.6575 156.539 12.0432C156.333 12.429 156.227 12.8597 156.231 13.2965C156.22 13.5971 156.274 13.8966 156.388 14.1751C156.502 14.4536 156.675 14.7048 156.894 14.912C157.372 15.3455 157.935 15.6759 158.548 15.8823C159.428 16.1702 160.323 16.4139 161.229 16.6123C162.428 16.8822 163.607 17.2331 164.759 17.6627C165.64 18.0071 166.427 18.5561 167.052 19.2641C167.719 20.0808 168.056 21.115 167.999 22.1655C168.019 23.1586 167.735 24.1344 167.184 24.9632C166.557 25.8593 165.679 26.5521 164.659 26.9556C163.333 27.4771 161.915 27.7255 160.49 27.6856C159.049 27.6819 157.619 27.4449 156.255 26.9838Z" fill="#C1272D" />
    <path d="M191.64 8.10129L183.164 27.4407H179.606L171.107 8.10129H175.02L181.496 23.0227L188.025 8.10129H191.64Z" fill="black" />
    <path d="M195.78 8.10129H199.39V27.4407H195.78V8.10129Z" fill="black" />
    <path d="M208.406 27.0828C207.194 26.7558 206.065 26.1815 205.089 25.3966L206.34 22.6082C207.222 23.2793 208.212 23.7969 209.268 24.139C210.389 24.5281 211.567 24.7286 212.755 24.7324C214.2 24.7324 215.28 24.5064 215.995 24.0448C216.32 23.8619 216.59 23.5969 216.778 23.2768C216.966 22.9566 217.065 22.5927 217.066 22.222C217.073 21.9636 217.023 21.7069 216.919 21.4701C216.815 21.2332 216.66 21.022 216.464 20.8514C216.024 20.4705 215.51 20.1835 214.953 20.0083C214.342 19.8057 213.508 19.5797 212.452 19.3206C211.23 19.0475 210.027 18.6966 208.851 18.2703C207.937 17.9244 207.124 17.3598 206.482 16.6265C205.788 15.7747 205.437 14.6971 205.497 13.6026C205.487 12.566 205.791 11.5504 206.369 10.6871C207.028 9.75137 207.946 9.0264 209.012 8.60056C210.383 8.04968 211.854 7.78669 213.333 7.82812C214.514 7.82705 215.691 7.97583 216.834 8.27086C217.895 8.52215 218.906 8.95056 219.823 9.53786L218.686 12.3309C217.855 11.8409 216.963 11.4594 216.033 11.1958C215.156 10.9473 214.249 10.8174 213.338 10.8096C211.913 10.8096 210.852 11.0498 210.154 11.5302C209.833 11.7303 209.57 12.0083 209.387 12.338C209.205 12.6676 209.11 13.038 209.112 13.4142C209.104 13.6702 209.153 13.9248 209.256 14.1594C209.359 14.3941 209.514 14.6029 209.709 14.7707C210.153 15.1453 210.668 15.4272 211.225 15.5997C211.834 15.8038 212.668 16.033 213.726 16.2873C214.934 16.5514 216.123 16.8977 217.284 17.3236C218.193 17.677 219.005 18.2405 219.653 18.9674C220.345 19.8053 220.697 20.8707 220.638 21.9535C220.65 22.9861 220.346 23.9978 219.766 24.8549C219.099 25.7853 218.177 26.5048 217.109 26.9273C215.732 27.4772 214.257 27.7402 212.774 27.6998C211.295 27.7112 209.823 27.5033 208.406 27.0828Z" fill="black" />
    <path d="M226.29 8.10129H229.9V27.4407H226.29V8.10129Z" fill="black" />
    <path d="M240.962 26.4327C239.404 25.6124 238.105 24.3781 237.21 22.8672C236.294 21.3251 235.822 19.562 235.846 17.771C235.822 15.9801 236.294 14.2172 237.21 12.6747C238.105 11.1652 239.404 9.9324 240.962 9.11394C242.622 8.26867 244.46 7.82785 246.325 7.82785C248.19 7.82785 250.028 8.26867 251.688 9.11394C253.242 9.93255 254.54 11.1593 255.44 12.6606C256.356 14.2082 256.826 15.9759 256.8 17.771C256.827 19.5662 256.357 21.3342 255.44 22.8814C254.54 24.3839 253.242 25.6123 251.688 26.4327C250.028 27.278 248.19 27.7188 246.325 27.7188C244.46 27.7188 242.622 27.278 240.962 26.4327ZM249.826 23.6962C250.853 23.1279 251.699 22.2863 252.271 21.2658C252.871 20.1987 253.178 18.9934 253.162 17.771C253.177 16.5486 252.87 15.3435 252.271 14.2761C251.698 13.2568 250.852 12.4155 249.826 11.8458C248.749 11.2739 247.547 10.9747 246.325 10.9747C245.104 10.9747 243.901 11.2739 242.824 11.8458C241.798 12.4165 240.951 13.2575 240.375 14.2761C239.777 15.3439 239.471 16.549 239.489 17.771C239.471 18.993 239.776 20.1983 240.375 21.2658C240.95 22.2855 241.797 23.1268 242.824 23.6962C243.901 24.2681 245.104 24.5673 246.325 24.5673C247.547 24.5673 248.749 24.2681 249.826 23.6962Z" fill="black" />
    <path d="M20.7838 13.0355C22.0668 14.311 22.7884 16.0404 22.7903 17.8443C22.7922 19.6482 22.0742 21.3791 20.7939 22.6573L11.414 31.9827C10.1315 30.7077 9.40998 28.9792 9.40747 27.1762C9.40496 25.3731 10.1217 23.6427 11.4006 22.3642L20.7805 13.0388L20.7838 13.0355Z" fill="black" />
    <path d="M11.3898 31.9968L2.00986 22.6714C0.729542 21.3932 0.0115474 19.6622 0.013432 17.8584C0.0153155 16.0545 0.736924 14.3251 2.01991 13.0495L11.3998 22.3749C12.6801 23.6531 13.3981 25.384 13.3963 27.1879C13.3944 28.9918 12.6728 30.7212 11.3898 31.9968Z" fill="black" />
    <path d="M11.3958 18.9598C10.1111 17.6825 9.38934 15.9502 9.38934 14.1439C9.38934 12.3376 10.1111 10.6052 11.3958 9.32797L20.7757 0.0025725C22.0593 1.27867 22.7809 3.00908 22.7822 4.81377C22.7835 6.61845 22.0642 8.34985 20.7824 9.62772L11.4025 18.9531L11.3958 18.9598Z" fill="#C1272D" />
    <path d="M20.7831 0.00548485L30.163 9.33088C31.448 10.6067 32.1709 12.3376 32.1728 14.1431C32.1747 15.9486 31.4554 17.6809 30.1731 18.9594L20.7931 9.63396C19.5081 8.35816 18.7852 6.62729 18.7833 4.82179C18.7814 3.01629 19.5007 1.28393 20.7831 0.00548485Z" fill="#C1272D" />
  </g>
  <defs>
    <clipPath id="clip0_5_19">
      <rect width="256.8" height="32" fill="white" />
    </clipPath>
  </defs>
</svg>